<svg xmlns="http://www.w3.org/2000/svg" viewBox="0 0 490.666 490.666"><path d="M394.667 373.333c-29.397 0-53.333 23.936-53.333 53.333S365.269 480 394.667 480 448 456.064 448 426.666s-23.936-53.333-53.333-53.333zm0 85.333c-17.643 0-32-14.357-32-32s14.357-32 32-32 32 14.357 32 32-14.358 32-32 32zM181.333 373.333c-29.397 0-53.333 23.936-53.333 53.333S151.936 480 181.333 480s53.333-23.936 53.333-53.333-23.935-53.334-53.333-53.334zm0 85.333c-17.643 0-32-14.357-32-32s14.357-32 32-32 32 14.357 32 32-14.357 32-32 32zM437.333 330.666H191.125c-25.323 0-47.317-18.027-52.288-42.88L85.12 19.242a10.666 10.666 0 00-10.453-8.576h-64C4.779 10.666 0 15.445 0 21.333S4.779 32 10.667 32H65.92l51.989 259.989c6.955 34.773 37.76 60.011 73.216 60.011h246.208c5.888 0 10.667-4.779 10.667-10.667s-4.779-10.667-10.667-10.667z"/><path d="M488 78.272a10.693 10.693 0 00-8-3.605H96c-5.888 0-10.667 4.779-10.667 10.667S90.112 96 96 96h371.925l-15.168 121.301c-2.005 15.979-15.659 28.032-31.765 28.032H128c-5.888 0-10.667 4.779-10.667 10.667s4.779 10.667 10.667 10.667h292.992c26.837 0 49.6-20.075 52.928-46.72l16.661-133.291A10.635 10.635 0 00488 78.272z"/></svg>