<svg id="Capa_1" enable-background="new 0 0 510 510" height="512" viewBox="0 0 510 510" width="512" xmlns="http://www.w3.org/2000/svg"><g><path d="m340.079 420c20-13.979 37.133-31.925 51.058-51.963l49.431-10.592c27.195-5.828 46.933-30.244 46.933-58.056 0-30.813-23.327-55.83-52.961-59.021.301-5.105.46-10.228.46-15.368v-15h-375v15c0 29.083 4.844 57.664 14.398 84.951 15.268 43.603 42.997 83.819 80.523 110.049-14.069 0-114.544 0-132.421 0v30h31.509c6.968 34.192 37.271 60 73.491 60h240c36.219 0 66.522-25.808 73.491-60h31.509v-30c-16.749 0-118.721 0-132.421 0zm117.421-120.611c0 13.759-9.765 25.838-23.219 28.722l-23.079 4.945c3.48-7.467 6.621-15.171 9.4-23.105 4.551-12.998 8.02-26.292 10.419-39.791 14.886 1.459 26.479 13.988 26.479 29.229zm-53.005-59.389c-1.025 15.264-3.606 30.383-7.606 45h-298.777c-4.001-14.617-6.581-29.736-7.606-45zm-295.854 75h277.718c-25.23 58.251-76.196 105-138.859 105-62.702 0-113.647-46.789-138.859-105zm258.859 165h-240c-19.556 0-36.239-12.539-42.43-30h324.86c-6.191 17.461-22.874 30-42.43 30z"/><path d="m142.5 165h30c0-8.873 2.684-12.564 7.131-18.679 5.431-7.468 12.869-17.695 12.869-36.323s-7.438-28.856-12.869-36.324c-4.447-6.115-7.131-9.806-7.131-18.679 0-8.871 2.684-12.561 7.131-18.674 5.431-7.467 12.869-17.694 12.869-36.321h-30c0 8.871-2.684 12.561-7.131 18.674-5.431 7.467-12.869 17.694-12.869 36.321 0 18.628 7.438 28.856 12.869 36.323 4.447 6.115 7.131 9.806 7.131 18.679s-2.684 12.564-7.131 18.679c-5.431 7.468-12.869 17.696-12.869 36.324z"/><path d="m222.5 165h30c0-8.873 2.684-12.564 7.131-18.679 5.431-7.468 12.869-17.695 12.869-36.323s-7.438-28.856-12.869-36.324c-4.447-6.115-7.131-9.806-7.131-18.679 0-8.871 2.684-12.561 7.131-18.674 5.431-7.467 12.869-17.694 12.869-36.321h-30c0 8.871-2.684 12.561-7.131 18.674-5.431 7.467-12.869 17.694-12.869 36.321 0 18.628 7.438 28.856 12.869 36.323 4.447 6.115 7.131 9.806 7.131 18.679s-2.684 12.564-7.131 18.679c-5.431 7.468-12.869 17.696-12.869 36.324z"/><path d="m302.5 165h30c0-8.873 2.684-12.564 7.131-18.679 5.431-7.468 12.869-17.695 12.869-36.323s-7.438-28.856-12.869-36.324c-4.447-6.115-7.131-9.806-7.131-18.679 0-8.871 2.684-12.561 7.131-18.674 5.431-7.467 12.869-17.694 12.869-36.321h-30c0 8.871-2.684 12.561-7.131 18.674-5.431 7.467-12.869 17.694-12.869 36.321 0 18.628 7.438 28.856 12.869 36.323 4.447 6.115 7.131 9.806 7.131 18.679s-2.684 12.564-7.131 18.679c-5.431 7.468-12.869 17.696-12.869 36.324z"/></g></svg>