<svg id="Layer_1" enable-background="new 0 0 510 510" viewBox="0 0 510 510" xmlns="http://www.w3.org/2000/svg"><g><path d="m353.837 104.572 78.966-78.966-21.213-21.212-79.599 79.599c-3.102-46.836-42.188-83.993-89.794-83.993-48.639 0-88.384 38.785-89.946 87.05-22.776 13.185-39.267 36.062-43.797 62.95h-31.257v75c0 85.925 66.022 156.707 150 164.311v30.827c-33.433 2.073-60 29.917-60 63.862v26h150v-26c0-33.945-26.567-61.789-60-63.862v-30.827c83.977-7.604 150-78.386 150-164.311v-75h-31.257c-2.917-17.309-10.786-32.958-22.103-45.428zm-8.528 45.467c-23.94.994-43.112 20.781-43.112 44.961v15c0 8.271-6.729 15-15 15-8.272 0-15-6.729-15-15v-15c0-24.18-19.172-43.967-43.112-44.961 6.664-25.869 30.191-45.039 58.112-45.039s51.448 19.17 58.112 45.039zm-103.112-120.039c28.259 0 52.002 19.644 58.331 45.988-4.351-.648-8.802-.988-13.331-.988-16.371 0-31.733 4.396-44.973 12.065-13.554-7.86-28.984-12.065-45.027-12.065-4.529 0-8.981.34-13.331.988 6.329-26.344 30.072-45.988 58.331-45.988zm-45 75c6.933 0 13.695 1.176 20.057 3.432-9.543 11.776-16.177 25.999-18.8 41.568h-59.358c6.677-25.85 30.195-45 58.101-45zm89.765 375h-89.531c1.984-16.87 16.37-30 33.766-30h22c17.395 0 31.781 13.13 33.765 30zm90.235-255c0 74.439-60.561 135-135 135s-135-60.561-135-135v-45h120c8.271 0 15 6.729 15 15v15c0 24.813 20.186 45 45 45 24.813 0 45-20.187 45-45v-15c0-8.271 6.728-15 15-15h30z"/></g></svg>